<svg width="14" height="14" viewBox="0 0 14 14" fill="none" xmlns="http://www.w3.org/2000/svg">
<path d="M7.00008 12.8333C5.45299 12.8333 3.96925 12.2188 2.87529 11.1248C1.78133 10.0308 1.16675 8.5471 1.16675 7C1.16675 5.4529 1.78133 3.96917 2.87529 2.87521C3.96925 1.78125 5.45299 1.16667 7.00008 1.16667C8.54718 1.16667 10.0309 1.78125 11.1249 2.87521C12.2188 3.96917 12.8334 5.4529 12.8334 7C12.8334 8.5471 12.2188 10.0308 11.1249 11.1248C10.0309 12.2188 8.54718 12.8333 7.00008 12.8333V12.8333ZM7.00008 11.6667C8.23776 11.6667 9.42474 11.175 10.2999 10.2998C11.1751 9.42466 11.6667 8.23768 11.6667 7C11.6667 5.76232 11.1751 4.57534 10.2999 3.70017C9.42474 2.825 8.23776 2.33333 7.00008 2.33333C5.7624 2.33333 4.57542 2.825 3.70025 3.70017C2.82508 4.57534 2.33341 5.76232 2.33341 7C2.33341 8.23768 2.82508 9.42466 3.70025 10.2998C4.57542 11.175 5.7624 11.6667 7.00008 11.6667V11.6667ZM7.58342 6.76083L9.06508 8.23667C9.17493 8.34651 9.23664 8.49549 9.23664 8.65083C9.23664 8.80618 9.17493 8.95516 9.06508 9.065C8.95524 9.17484 8.80626 9.23655 8.65092 9.23655C8.49557 9.23655 8.34659 9.17484 8.23675 9.065L6.59175 7.40833C6.48184 7.30063 6.41894 7.15387 6.41675 7V4.66667C6.41675 4.51196 6.47821 4.36358 6.5876 4.25419C6.697 4.14479 6.84537 4.08333 7.00008 4.08333C7.15479 4.08333 7.30316 4.14479 7.41256 4.25419C7.52196 4.36358 7.58342 4.51196 7.58342 4.66667V6.76083Z" fill="black"/>
</svg>
