<svg width="14" height="14" viewBox="0 0 14 14" fill="none" xmlns="http://www.w3.org/2000/svg">
<path d="M3.29 9.54333C2.55512 8.80937 2.05446 7.87392 1.85136 6.85534C1.64826 5.83676 1.75184 4.78083 2.14901 3.82114C2.54618 2.86144 3.21908 2.04112 4.08258 1.46395C4.94608 0.886786 5.96137 0.578714 7 0.578714C8.03863 0.578714 9.05393 0.886786 9.91743 1.46395C10.7809 2.04112 11.4538 2.86144 11.851 3.82114C12.2482 4.78083 12.3517 5.83676 12.1486 6.85534C11.9455 7.87392 11.4449 8.80937 10.71 9.54333L7.41417 12.845C7.35994 12.8997 7.29542 12.9431 7.22434 12.9727C7.15325 13.0023 7.07701 13.0175 7 13.0175C6.923 13.0175 6.84675 13.0023 6.77567 12.9727C6.70458 12.9431 6.64006 12.8997 6.58584 12.845L3.29 9.54333ZM9.8875 8.72083C10.4585 8.14975 10.8474 7.42217 11.0049 6.63009C11.1624 5.83802 11.0815 5.01702 10.7725 4.27091C10.4634 3.5248 9.94003 2.8871 9.26854 2.43843C8.59704 1.98977 7.80759 1.7503 7 1.7503C6.19241 1.7503 5.40296 1.98977 4.73147 2.43843C4.05998 2.8871 3.5366 3.5248 3.22753 4.27091C2.91846 5.01702 2.83758 5.83802 2.9951 6.63009C3.15262 7.42217 3.54148 8.14975 4.1125 8.72083L7 11.6083L9.8875 8.72083ZM7 8.16667C6.38116 8.16667 5.78767 7.92083 5.35009 7.48325C4.9125 7.04566 4.66667 6.45217 4.66667 5.83333C4.66667 5.2145 4.9125 4.621 5.35009 4.18342C5.78767 3.74583 6.38116 3.5 7 3.5C7.61884 3.5 8.21233 3.74583 8.64992 4.18342C9.0875 4.621 9.33334 5.2145 9.33334 5.83333C9.33334 6.45217 9.0875 7.04566 8.64992 7.48325C8.21233 7.92083 7.61884 8.16667 7 8.16667ZM7 7C7.30942 7 7.60617 6.87708 7.82496 6.65829C8.04375 6.4395 8.16667 6.14275 8.16667 5.83333C8.16667 5.52391 8.04375 5.22717 7.82496 5.00838C7.60617 4.78958 7.30942 4.66667 7 4.66667C6.69058 4.66667 6.39384 4.78958 6.17504 5.00838C5.95625 5.22717 5.83334 5.52391 5.83334 5.83333C5.83334 6.14275 5.95625 6.4395 6.17504 6.65829C6.39384 6.87708 6.69058 7 7 7Z" fill="black"/>
</svg>
